<?xml version="1.0" encoding="UTF-8"?>
<svg id="Layer_1" data-name="Layer 1" xmlns="http://www.w3.org/2000/svg" viewBox="0 0 669.19 653.83">
  <defs>
    <style>
      .cls-1 {
        fill: #1e14f0;
      }

      .cls-1, .cls-2 {
        stroke-width: 0px;
      }

      .cls-2 {
        fill: #000118;
      }
    </style>
  </defs>
  <path class="cls-2" d="M347.3,653.83c-129.23-.49-255.07-62.11-313.78-181.47C-29.32,344.64-2.33,186.02,102.12,88.8,205.08-7.03,369.48-27.03,493.93,37.26c127.86,66.05,196.09,209.61,169.61,350.76-13.59,72.45-53.55,140.63-110.25,187.77-55.5,46.14-133.21,78.54-205.99,78.04ZM216.09,301.35c-36.12-4.89-72.32-9.07-108.44-13.87-7.55-1-10.26-1.03-12.98-7.96-1.92-4.9-3.32-14.63-3.43-20-.29-13.78,12.75-21.57,20.44-31.4,8.91-11.39,13.67-25.39,18.66-38.83,2.07-5.56,3.28-12.14,8.53-15.75,5.29-3.64,10.55-.89,15.97-2.66,11.05-3.6,20.31-23.68,25.9-32.96,3.28-5.44,5.75-12.47,11.97-15.15,5.99-2.58,12.15.18,18.32-.24,13.06-.88,25.53-14.58,35.57-22.28,5.57-4.27,10.04-9.11,17.42-8.68,6.3.37,14.11,4.11,20.15,5.93,5,1.51,13.72,6.94,16.75,2.18,1.71-2.69.07-14.12.1-17.32.11-11.82,2.17-20.41,15.13-22.11,15.47-2.03,32.96-.53,48.59-.17,11.04.26,17.74,2.72,19.65,14.32,1.84,11.2-5.54,23.94,9.7,20.31,15.87-3.78,12.6-1.92,10.59,11.47-.7,4.68-.89,10.11,4.99,12.28,4.92,1.82,12.96-3.37,17.71-5.33,7.99-3.3,21.76-13.96,27.63-3.54,7.08,12.57-27.41,51.7-4.56,56.69,5.47,1.2,17.19-3.41,22.77-4.59,5.89-1.25,12.93-4.23,18.92-4.25,4.66-.02,9.15,1.14,11.76,5.45,4.06,6.68-.71,9.53-5.33,15.18-4.8,5.87-9.63,11.7-14.76,17.28-3.71,4.03-11.01,9.14-12.69,14.59-4.35,14.09,10.1,14.23,19.29,14.3,9.92.08,25.03-4.27,30.65,6.62,6.14,11.91-11.55,18.36-19.58,24.13-6.01,4.32-21.49,13.35-7.56,19.84,10.8,5.04,27.32-3.21,38.42.98,6.3,2.38,8.8,9.16,4.69,14.45-3.28,4.22-13.08,7.61-17.8,10.45-2.97,1.78-11.59,4.64-12.7,7.84-.98,2.83,2.31,9.82,4.57,11.39,4.13,2.87,14.17.89,19.24,1.09,6.69.26,27.41-1.92,22.86,10.88-3.75,10.57-25.34,11.02-22.35,24.04,2.9,12.63,16.43,6.71,25.6,5.71,5.41-.59,11.44-2.26,13.09,4.85,1.33,5.72-4.53,9.45-8.21,13.18-5.35,5.42-15.42,13.96-4.13,20.59,9.2,5.41,19.05-14.87,26.95-4.6,7.63,9.91-9.96,18.74-8.49,28.27,3.2,20.79,29.94-21.4,31.11,12.28,11.21-12.21,14.38-36.99,17.55-52.62,4.12-20.28,6-41.03,5.66-61.72-.59-36.16-7.46-72.38-21.14-105.9-25.6-62.71-75.3-115.68-135.89-145.83C360.16,14.11,218.51,34.64,126.23,120.12,36.79,202.97,14.27,341.48,66.34,450.49c24.87,52.06,64.74,94.75,115.05,123.01,5.44,3.05,30.11,19.45,36.25,16.57,3.74-1.75,3.69-15.27,4.51-19.35,1.73-8.61,3.73-17.17,5.9-25.68,8.81-34.55,22.88-68.28,26.46-103.98,2.21-22.08,2.06-72.98-28.57-75.78-19.78-1.81-40.61-.03-60.49-.04-15.44,0-35.35,3.93-49.98-1.55-14.32-5.36-19.66-18.28-19.41-32.36.19-10.92-5.12-25.68,8.72-26.18,37.32-1.34,74.11,2.85,111.32-3.8ZM266.93,254.98c-1.36,36.89,27.98,69.04,63.74,75.07,68.66,11.57,117.7-72.4,71.21-125.32-44.77-50.97-137.85-20.48-134.95,50.25ZM318.22,122.15h-.05c0,8.43-.01,16.86,0,25.29,0,3.91-1.91,14.33-.01,17.3,1.44,2.25,10.27,2.68,12.33.71,3.06-2.92-1.18-8.23,2-11.49,2.53-2.59,14.67-2.68,17.84-1.36,4.56,1.9,3.14,1.55,4.81,6.18,1.96,5.43-1.4,6.65,5.79,7.34,4.82.46,5.09-.19,6.69-3.99,2.27-5.42-.13-17.63-.16-23.68-.04-7.89-.06-15.79-.08-23.68-.02-9.61,4.43-32.5-4.89-36.5-5.19-2.23-16.27.08-22.2.06-4.92-.02-16.12-2.54-20.22.32-5.88,4.11-1.84,36.5-1.84,43.5ZM192.24,230.56c18.57.07,32.97-10.78,37.2-26.61.8-3,.76-3.78-2.73-3.08-17.88,3.62-34.66,10.34-51.31,17.52-2.69,1.16-3.06,2.45-1.01,4.76,5.22,5.87,12.04,7.28,17.85,7.41Z"/>
  <path class="cls-1" d="M216.09,301.35c-37.21,6.65-74,2.46-111.32,3.8-13.84.5-8.53,15.26-8.72,26.18-.25,14.08,5.09,27,19.41,32.36,14.63,5.48,34.55,1.54,49.98,1.55,19.88,0,40.71-1.77,60.49.04,30.63,2.8,30.79,53.69,28.57,75.78-3.58,35.69-17.64,69.43-26.46,103.98-2.17,8.51-4.17,17.07-5.9,25.68-.82,4.07-.77,17.6-4.51,19.35-6.14,2.88-30.81-13.51-36.25-16.57-50.31-28.25-90.18-70.94-115.05-123.01-52.07-109.01-29.55-247.52,59.89-330.37C218.51,34.64,360.16,14.11,472.92,70.23c60.59,30.16,110.29,83.12,135.89,145.83,13.68,33.52,20.55,69.74,21.14,105.9.34,20.69-1.54,41.44-5.66,61.72-3.18,15.63-6.34,40.41-17.55,52.62-1.17-33.68-27.91,8.51-31.11-12.28-1.47-9.53,16.12-18.36,8.49-28.27-7.9-10.26-17.75,10.01-26.95,4.6-11.28-6.63-1.21-15.17,4.13-20.59,3.68-3.73,9.54-7.46,8.21-13.18-1.65-7.11-7.68-5.44-13.09-4.85-9.16,1-22.69,6.93-25.6-5.71-2.99-13.02,18.6-13.47,22.35-24.04,4.54-12.81-16.18-10.63-22.86-10.88-5.07-.19-15.11,1.78-19.24-1.09-2.26-1.57-5.55-8.57-4.57-11.39,1.11-3.2,9.73-6.06,12.7-7.84,4.72-2.84,14.52-6.22,17.8-10.45,4.11-5.29,1.61-12.08-4.69-14.45-11.1-4.19-27.62,4.06-38.42-.98-13.93-6.5,1.55-15.52,7.56-19.84,8.04-5.78,25.72-12.22,19.58-24.13-5.61-10.89-20.73-6.53-30.65-6.62-9.18-.08-23.63-.22-19.29-14.3,1.68-5.45,8.98-10.56,12.69-14.59,5.13-5.58,9.97-11.42,14.76-17.28,4.62-5.65,9.4-8.5,5.33-15.18-2.62-4.3-7.1-5.46-11.76-5.45-5.99.02-13.03,3-18.92,4.25-5.57,1.18-17.29,5.78-22.77,4.59-22.85-4.99,11.64-44.12,4.56-56.69-5.87-10.43-19.64.24-27.63,3.54-4.75,1.96-12.79,7.15-17.71,5.33-5.88-2.17-5.69-7.6-4.99-12.28,2.01-13.4,5.28-15.25-10.59-11.47-15.24,3.63-7.85-9.11-9.7-20.31-1.91-11.6-8.61-14.06-19.65-14.32-15.63-.36-33.11-1.86-48.59.17-12.95,1.7-15.02,10.29-15.13,22.11-.03,3.2,1.62,14.63-.1,17.32-3.03,4.75-11.74-.68-16.75-2.18-6.04-1.82-13.85-5.57-20.15-5.93-7.37-.43-11.84,4.41-17.42,8.68-10.04,7.69-22.52,21.39-35.57,22.28-6.17.42-12.33-2.33-18.32.24-6.23,2.68-8.69,9.71-11.97,15.15-5.59,9.28-14.85,29.37-25.9,32.96-5.41,1.76-10.68-.98-15.97,2.66-5.25,3.61-6.46,10.18-8.53,15.75-4.99,13.44-9.75,27.44-18.66,38.83-7.69,9.83-20.73,17.62-20.44,31.4.11,5.37,1.51,15.1,3.43,20,2.72,6.93,5.43,6.96,12.98,7.96,36.12,4.8,72.32,8.98,108.44,13.87Z"/>
  <path class="cls-2" d="M343.21,315.25c-34.66-.03-60.97-26.63-60.94-61.6.03-32.88,27.88-59.45,62.33-59.49,32.68-.03,60.11,27.55,60.64,60.01.57,35.16-29.84,62.69-62.03,61.08ZM344.12,303.16c26.15.09,47.72-21.54,47.91-48.06.19-26.41-21.89-48.27-48.77-48.29-26.94-.02-48.01,21.4-48.05,48.85-.04,26.28,21.72,47.4,48.91,47.49Z"/>
  <path class="cls-1" d="M344.12,303.16c-27.2-.09-48.95-21.21-48.91-47.49.04-27.45,21.1-48.87,48.05-48.85,26.89.02,48.96,21.87,48.77,48.29-.19,26.51-21.75,48.15-47.91,48.06ZM343.3,220.06c-45.22.11-44.66,69.51.1,69.64,45.18.13,45.36-69.75-.1-69.64Z"/>
  <path class="cls-2" d="M343.3,220.06c45.46-.11,45.28,69.77.1,69.64-44.75-.13-45.32-69.53-.1-69.64ZM342.96,276.4c28.26.62,28.47-42.93.81-43.32-27.56-.39-29.29,42.7-.81,43.32Z"/>
  <path class="cls-1" d="M342.96,276.4c-28.49-.62-26.76-43.71.81-43.32,27.67.39,27.45,43.94-.81,43.32ZM352.71,255.31c.01-11.05-18.17-11.66-18.61-.62-.47,11.7,18.6,12.31,18.61.62Z"/>
  <path class="cls-2" d="M352.71,255.31c-.01,11.69-19.08,11.08-18.61-.62.44-11.05,18.62-10.44,18.61.62Z"/>
</svg>