<?xml version="1.0" encoding="utf-8"?>
<!-- Generator: Adobe Illustrator 28.2.0, SVG Export Plug-In . SVG Version: 6.00 Build 0)  -->
<svg version="1.1" id="Layer_1" xmlns="http://www.w3.org/2000/svg" xmlns:xlink="http://www.w3.org/1999/xlink" x="0px" y="0px"
	 viewBox="0 0 748.4 740.1" style="enable-background:new 0 0 748.4 740.1;" xml:space="preserve">
<style type="text/css">
	.st0{fill:#030101;}
	.st1{fill:#F0141E;}
	.st2{fill:#FEFEFE;}
</style>
<path class="st0" d="M382.1,0.1c143.9,6.2,273,90.1,333.9,221.8c66.5,144,27.4,312.2-87.4,419.1c-121.2,112.9-309.2,131.8-450.1,44
	C48.1,603.6-25.6,448.5,8.2,296.4c33.1-149,157.1-265.2,307.2-291C337.4,1.6,359.8-0.4,382.1,0.1L382.1,0.1z M104.7,553.1
	c14.5-6.3,26.7-23.6,25.2-35.8C117.9,526.7,111.1,539.8,104.7,553.1c0,0.3-0.1,0.5-0.2,0.8C104.6,553.7,104.7,553.4,104.7,553.1
	L104.7,553.1z M359.8,99.3c6.3,0.6,13.1,7,18.2,10.2c6.9,4.4,13.8,8.7,20.8,12.9c12.9,7.7,25.9,15.3,39,22.8
	c12.2,7,24.1,13,37.8,16.8c11.6,3.2,23.9,4.3,35.3,8.2c11.9,4,20.8,13.6,30.4,21.3c5.1,4.1,10.5,6.9,11.8,13.4
	c1.3,6.3-0.2,14.7-0.2,21.2c0,14.8-1.8,29.4-2.2,44.2c-0.2,7.6,1,12.8-2.9,19.4c-3,5.2-7.2,10-10.7,14.9c-3.3-8.3-6.4-15.8-9.7-24.1
	c-1.8,8-3.4,16.1-5.2,24.1c-1.2,5.4-1.7,17-5.4,21.2c-3.2,3.7-2.4,1.8-5.6-2.5c-3-4.1-4.4-11.4-9-14.2c-4.3,15.9-6.8,31.8-12.6,47.5
	c-4.2-5.3-5.6-11.4-10.1-16.5c-2.4,12.8-2.8,28.8-11.1,39.5c-3.3,4.2-10.1,8.7-11.7,14c-1.6,5.4,2,14.7,3,20.2
	c5.2-7.4,7.7-15.3,13.3-22.5c3.4,17.3,3.8,33.9,7,51c6.6-8.2,9.3-17.9,16.2-26c2.6,18.8,5,36.4,7.5,55c2.8-3.4,16.2-23.6,19.9-19.2
	c1.2,1.4,0.6,11.5,0.7,12.8c0.3,7,0.6,14.1,0.6,21.1c0,10.5-5.2,13.1-7.2,22.1c-2.2,9.6,1.5,19.9-3.7,28.7
	c-3.9,6.6-16.2,23.2-23.3,26.2c-8.6,3.6-23.3-2.4-32.2-4c-8.7-1.6-22.5-7.2-30.8-4.2c-4.7,1.7-18.6,12.4-20.1,17.5
	c-2.3,7.9,3.4,23.4,5.3,31.4c2.5,11,5.7,21.8,9.4,32.4c4.3,12.2,9.3,24.1,14.9,35.7c2.7,5.5,9.6,25.5,15.5,27.3
	c10.9,3.3,1.2-12.1,0.3-14.1c-4.9-10.7-9.2-21.6-12.9-32.8c-7-21.4-16.3-49-12.8-71.8c5.7,2,10.2,15.9,13.5,21.2
	c5.3,8.6,11,17,17,25.2c10.7,14.7,22.3,28.7,34.9,41.9c5.2,5.5,9.6,12.9,17.4,12.3c6.8-0.5,18.3-8.9,24.1-12.1
	c14.2-7.8,28-16.5,41-26.1c55.7-41,100.1-99.7,123-165.1c43.2-123.7,2.3-262.7-92.1-351.1c-99.2-92.8-245.4-119-369.4-62
	c-111.7,51.3-194,160.7-203,284.8c-2.4,33.5,0.3,67.7,8.4,100.3c2.2,9,4.8,17.8,7.9,26.5c1.9,5.4,4.7,19.6,9.2,23.5
	c5,4.4,12.6-3.3,18.1-6.5c5.6-3.3,14.6-6.3,18-12.1c3.8-6.5,4.1-16.9,5.7-24.1c1.8-8,2.8-10-3.4-15.1c-3.3-2.8-32.7-19.3-29.3-22.4
	c3.3-3,22.3-2.9,27.1-3.5c8-1.1,16.2-1.6,24.1-3.2c15.4-3,30.1-12.3,44.2-19c-9.6-2.3-49.5,15.6-54,9.7c-1.4-1.9,2.2-6.9,1.6-9.1
	c-1-4.2-3.2-4.7-6.7-6.9c-9.3-5.7-19.3-10.5-28.8-15.8c-9.4-5.2-5.6-6.4,3.1-7.2c11.9-1.1,23.8-2.7,35.6-4.7
	c23.4-4,45.6-10.7,68.2-17.6c-13.4-0.6-26.8-0.1-40,2.1c-4.4,0.8-24.2,8.7-27.6,6c-2.6-2.1,0.2-5.6-0.1-8.3c-0.7-5.9-2.7-6-8.3-8.6
	c-6.5-3.1-29.9-9.7-32.3-16.7c36.3-4.5,72.6-7.6,107.9-20.6c-30.8-3.3-58.5,7.3-87.3,13.1c7-3.1,38-6.9,33.5-20.2
	c-1.9-5.8-16.4-8.5-22-10.8c-7.5-3-15.9-5.5-22.2-10.5c41-2.3,81.7-6.4,123.7-11.4c-8.9-3.2-19.8-3.7-29.1-4.3
	c-7-0.4-13.6-0.1-20.5,0.8c-3,0.4-10,3.7-12.4,1.2c-1.7-1.7,3-7.8,2.1-10.3c-1.3-3.8-9.8-6.1-13-7.7c-7.9-4-21.4-7.7-26.4-15.2
	c51.1-4.1,101-10.6,148.3-29.9c-17.5,0.6-34.3,2.5-51.2,6.9c-16.9,4.4-34.4,11.1-51.9,12.1c7.6-2.7,28.5-4.7,20.4-15.9
	c-3.4-4.7-14.6-9.7-19.5-12.9c-6-4-12-7.9-17.9-11.9c4.7-4.8,24-1.8,30.2-1.9c10.3-0.1,20.6-0.4,31-1c21.2-1.1,42.3-3,63.4-4.8
	c10.8-0.9,23.6-3.9,34.4-2.9c10,0.9,19.2,7.9,27.8,12.6c14.2,7.8,29.3,14,45.9,12.4c-13.2-9-28.2-15.6-41.9-23.7
	c-14.2-8.4-21.9-12.5-38.6-11.3c-16.5,1.2-33,3.5-49.5,5.5c-13.8,1.7-29.5,5.4-43.4,3.9c7.3-2.4,44-2.8,46.1-8.9
	c1.1-3.3-13.1-19.3-15.2-22.3c-3.7-5.4-10.7-12.5-12.1-19.2c4.7-2.1,14.4,3.5,18.7,4.9c6.7,2.2,13.6,4,20.4,5.6
	c14.6,3.5,29.4,5.8,44.2,7.6c14.8,1.8,30,1.2,43.4,8.2c11.8,6.1,24.7,14.3,38,16.4c0.1,0.1,0.2,0.2,0.4,0.3l-0.4-0.2
	c-8.6-8.6-17.9-16.5-27.2-24.2c-9.8-8.1-15.6-8.3-28.1-9.3c-24.6-2-49.2-3.4-73.8-5.8c16-1,32.2,1.2,48.1,1.4c8.7,0.1,8.5-0.1,5-7.9
	c-3.2-7.1-6.8-14.1-10.3-21.1c0.4-0.3,0.7-0.6,1-0.9c31,17.1,61.7,34.9,94.7,48.3C379.3,120.4,368.8,110.5,359.8,99.3L359.8,99.3
	L359.8,99.3z M412.9,409.3c-21.4-18.9-42.8-33.4-72.7-29.6c-4.6,0.6-17.2,1.6-20.3,5.2c-3.2,3.8,0.5,9.6,1.8,13.7
	c4.6,13.9,7.6,29.8,14.5,42.7c7-12.5,11.8-25.3,19.5-37.8c8.2,23.2,13.8,46,20.7,68.5c6.7-11.5,10.5-24.1,17.6-36.4
	c8.5,20,14.5,39.8,20.1,60.3c9.3-13.1,16.2-27.2,26.7-39.8c4.9,16.4,7.8,32.3,12,48.9c4.4-5.4,26.9-27.3,24.6-33.2
	c-1.5-3.8-13.4-9.7-16.9-12.9c-5-4.7-10.4-9.7-14.4-15.3c-8.2-11.7-12.2-27.6-19.2-40.3c-3.6-6.7-4.3-9.3-11-12.2
	c-7-3-15.4-5-23-5.5C401,392.4,407.5,400.4,412.9,409.3L412.9,409.3z M250.3,212.6c12.8,15.1,28.6,32.5,50.5,29.4
	c20.6-2.9,43.9-20.2,60.1-32.4c-7-1.2-17.5,4.1-25.2,4.2c-9.1,0-17.6-2-26.4-3.9C289.5,205.4,269.7,207.2,250.3,212.6L250.3,212.6z
	 M196.8,375.3c0,0.3-0.1,0.6-0.1,0.9c26.5,0,53.8-3.1,80.1-6c11.5-1.2,11.5-1,11.9,10.1c0.5,13.9,0.6,27.8,2.1,41.6
	c4.2-5.2,8.3-10.5,12.2-15.9c1.7-2.3,11.9-13.5,11.3-16.1c-1.1-5.4-12.2,2.8-16.5,4.8c-0.7-23.1,0.1-45.6-3.4-67.9
	c-2.6,6.2-3.6,17.2-9,21.7c-5.7,4.7-19.2,6.1-26.2,8.2C238.5,363,217.6,369.1,196.8,375.3L196.8,375.3z M380.5,527.9
	c-46.8-17.6-92.5-34.4-140.9-42C283.5,508.7,329.7,523.5,380.5,527.9z M411.8,319.5c5.1-13,9.3-26.7,13.6-40
	c3.2-10,1.4-22.5-9.3-27.8c-5.5-2.7-4.2-2.7-7.2,4.3c-2.8,6.2-7.3,14.1-7.4,21C401.3,290.3,408.1,306.7,411.8,319.5L411.8,319.5z
	 M449.8,234.8c-4.2,9.6-11.1,20.1-10.5,30.7c0.7,12.2,4.9,25.4,8.2,37.1c4.5-12.8,8.8-25.7,12.7-38.7
	C464.5,249.9,458.4,245.7,449.8,234.8L449.8,234.8z M343.6,353.1c5-15.7,24.7-52.2,2.7-62.6c-5.9-2.8-4.4-2.7-6.9,4.8
	c-1.9,5.8-4.9,13.2-5.3,19.3C333.2,326.8,339.7,341.6,343.6,353.1L343.6,353.1z M479.9,291.9c5-11.4,10-22.7,14.3-34.4
	c4.5-12.6-2.2-19.3-8.5-30.4C466.6,241.7,475,273.1,479.9,291.9L479.9,291.9z M378.1,266c-3.8,9.9-10.2,21.2-10.9,31.9
	c-0.8,11.6,4.6,23.9,8.4,34.6c3.8-12.1,7.9-24.2,11.4-36.4c1.4-4.7,4.1-10.2,2.7-15.1C388.4,276.2,381.1,269.8,378.1,266L378.1,266z
	 M312.3,304.8c-2.8,8.5-8.2,18.8-8,27.9c0.2,9.4,6.4,22.2,9.9,30.6c2.9-11.3,6.7-22.7,8.7-34.1C324.6,319.3,318.8,312.3,312.3,304.8
	L312.3,304.8z M61.6,504.2c6.1,13.2,12.2,25.6,20.5,38.2c3.8-12.9,6.3-24.7,8.7-36.5c0.5-2.6-0.5-3.7-3.2-3.5
	C79.2,503,70.8,503.5,61.6,504.2z M518.3,233.5c-4.7,6.5-10.8,12.5-11.4,20.3c-0.7,8.5,4,20.6,5.7,29.1c3.8-6.5,11.4-16.8,12.4-24.3
	C526,250.8,520.6,241,518.3,233.5L518.3,233.5z M142.1,448.5c-14,10-21.9,23.6-25.2,41.2C129.9,478.1,142.4,467.4,142.1,448.5z
	 M485.7,505.3c2.1-2.4,14-12.6,13.5-15.6c-0.7-4-11.5-9.5-14.4-11.7C484.7,484.9,482.3,498.9,485.7,505.3z M120.3,574
	c-10.4,9-11.9,8.7-3.7,15.2C118.7,584.7,119.4,579.9,120.3,574z"/>
<path class="st1" d="M379.8,150.2c-13.3-2-26.2-10.2-38-16.4c-13.4-7-28.6-6.3-43.4-8.2c-14.8-1.8-29.6-4.2-44.2-7.6
	c-6.9-1.6-13.7-3.5-20.4-5.6c-4.3-1.4-14.1-6.9-18.7-4.9c1.3,6.7,8.4,13.8,12.1,19.2c2.1,3,16.3,19,15.2,22.3
	c-2.1,6.1-38.8,6.6-46.1,8.9c13.9,1.4,29.6-2.2,43.4-3.9c16.5-2,32.9-4.3,49.5-5.5c16.8-1.2,24.4,2.9,38.6,11.3
	c13.7,8.1,28.8,14.7,41.9,23.7c-16.7,1.7-31.7-4.6-45.9-12.4c-8.7-4.7-17.9-11.7-27.8-12.6c-10.8-0.9-23.6,2-34.4,2.9
	c-21.1,1.8-42.2,3.6-63.4,4.8c-10.3,0.5-20.6,0.8-31,1c-6.2,0.1-25.5-3-30.2,1.9c6,4,12,7.9,17.9,11.9c4.9,3.2,16.1,8.2,19.5,12.9
	c8.1,11.1-12.8,13.2-20.4,15.9c17.5-1,35.1-7.7,51.9-12.1c16.9-4.4,33.8-6.2,51.2-6.9c-47.3,19.3-97.2,25.8-148.3,29.9
	c5,7.5,18.5,11.3,26.4,15.2c3.2,1.6,11.7,3.9,13,7.7c0.9,2.6-3.8,8.6-2.1,10.3c2.4,2.5,9.4-0.8,12.4-1.2c6.9-1,13.6-1.2,20.5-0.8
	c9.4,0.6,20.3,1,29.1,4.3c-42,5-82.7,9.1-123.7,11.4c6.4,5,14.8,7.5,22.2,10.5c5.7,2.3,20.1,5,22,10.8c4.4,13.3-26.5,17.1-33.5,20.2
	c28.8-5.9,56.5-16.5,87.3-13.1c-35.3,13-71.6,16.1-107.9,20.6c2.4,7,25.9,13.6,32.3,16.7c5.6,2.7,7.6,2.7,8.3,8.6
	c0.3,2.7-2.5,6.2,0.1,8.3c3.4,2.7,23.1-5.2,27.6-6c13.2-2.3,26.6-2.8,40-2.1c-22.6,6.9-44.9,13.6-68.2,17.6
	c-11.8,2-23.7,3.6-35.6,4.7c-8.7,0.8-12.5,2-3.1,7.2c9.5,5.3,19.6,10.1,28.8,15.8c3.5,2.2,5.7,2.7,6.7,6.9c0.6,2.2-3,7.2-1.6,9.1
	c4.5,5.9,44.4-12,54-9.7c-14.1,6.7-28.9,16-44.2,19c-7.9,1.5-16.2,2-24.1,3.2c-4.8,0.7-23.8,0.5-27.1,3.5
	c-3.4,3.1,26,19.6,29.3,22.4c6.2,5.1,5.2,7.1,3.4,15.1c-1.6,7.2-1.9,17.6-5.7,24.1c-3.4,5.8-12.4,8.8-18,12.1
	c-5.5,3.2-13.1,10.9-18.1,6.5c-4.6-4-7.4-18.2-9.2-23.5c-3-8.7-5.6-17.6-7.9-26.5c-8.1-32.7-10.8-66.8-8.4-100.3
	c9-124,91.3-233.4,203-284.8c124-57,270.2-30.8,369.4,62c94.4,88.4,135.3,227.4,92.1,351.1c-22.9,65.4-67.3,124-123,165.1
	c-13.1,9.6-26.8,18.3-41,26.1c-5.8,3.2-17.3,11.6-24.1,12.1c-7.8,0.6-12.1-6.9-17.4-12.3c-12.6-13.1-24.2-27.2-34.9-41.9
	c-6-8.2-11.7-16.6-17-25.2c-3.2-5.2-7.8-19.2-13.5-21.2c-3.5,22.7,5.7,50.4,12.8,71.8c3.7,11.2,8,22.1,12.9,32.8
	c0.9,1.9,10.6,17.4-0.3,14.1c-5.9-1.8-12.8-21.7-15.5-27.3c-5.7-11.6-10.7-23.5-14.9-35.7c-3.7-10.6-6.9-21.4-9.4-32.4
	c-1.9-8-7.5-23.5-5.3-31.4c1.5-5.1,15.4-15.8,20.1-17.5c8.3-3,22.1,2.5,30.8,4.2c8.9,1.6,23.6,7.7,32.2,4c7-3,19.4-19.5,23.3-26.2
	c5.2-8.8,1.5-19.1,3.7-28.7c2.1-9,7.2-11.7,7.2-22.1c0-7-0.3-14.1-0.6-21.1c-0.1-1.3,0.5-11.4-0.7-12.8c-3.7-4.4-17,15.8-19.9,19.2
	c-2.5-18.6-5-36.2-7.5-55c-7,8.1-9.7,17.8-16.2,26c-3.1-17.1-3.6-33.7-7-51c-5.6,7.2-8.1,15-13.3,22.5c-1.1-5.5-4.6-14.8-3-20.2
	c1.6-5.3,8.4-9.8,11.7-14c8.3-10.7,8.7-26.6,11.1-39.5c4.6,5.1,5.9,11.1,10.1,16.5c5.9-15.7,8.3-31.6,12.6-47.5
	c4.6,2.9,5.9,10.1,9,14.2c3.2,4.3,2.3,6.2,5.6,2.5c3.7-4.2,4.1-15.8,5.4-21.2c1.8-8,3.4-16.1,5.2-24.1c3.3,8.3,6.3,15.8,9.7,24.1
	c3.5-4.9,7.7-9.7,10.7-14.9c3.9-6.6,2.7-11.8,2.9-19.4c0.4-14.8,2.2-29.4,2.2-44.2c0-6.5,1.6-14.9,0.2-21.2
	c-1.4-6.5-6.8-9.3-11.8-13.4c-9.6-7.7-18.5-17.2-30.4-21.3c-11.4-3.9-23.7-5-35.3-8.2c-13.6-3.8-25.6-9.8-37.8-16.8
	c-13-7.5-26-15.1-39-22.8c-7-4.1-13.9-8.5-20.8-12.9c-5.1-3.3-12-9.6-18.2-10.2l-0.1-0.1l0.1,0.1c9.1,11.2,19.6,21.1,29.6,31.6
	c-33-13.4-63.7-31.2-94.7-48.3c-0.4,0.3-0.7,0.6-1,0.9c3.5,7,7,14,10.3,21.1c3.5,7.7,3.7,8-5,7.9c-16-0.2-32.2-2.4-48.1-1.4
	c24.6,2.4,49.1,3.8,73.8,5.8c12.5,1,18.3,1.2,28.1,9.3C361.9,133.9,371.1,141.7,379.8,150.2L379.8,150.2L379.8,150.2z M684.8,378
	c0.4-10.8-1-23.6-3.2-36.2c-7-41-22.5-78.1-49.5-110.1c-6.4-7.6-6.5-7.6-13.5-0.7c-1.2,1.2-2.3,2.5-3.6,3.4
	c-2.5,1.8-2.3,3.2-0.3,5.5c40.6,48.3,55.8,104.4,49.8,166.5c-4.3,44.3-22,83.6-47.8,119.5c-2.7,3.7-8.2,7.2-7.5,11.2
	c0.8,4.2,7,6.1,10.4,9.4c2.3,2.2,3.5,1.6,5.4-0.7C663.7,497.3,684.5,442.3,684.8,378L684.8,378z M639,382.7
	c-0.2-7.8-0.2-15.7-1.3-23.4c-3.9-28.6-12.9-55.2-29.4-79.1c-4.3-6.2-4.4-6.1-9.8-1.3c-1.5,1.3-2.8,2.9-4.5,3.9
	c-3.7,2.3-3.4,4.5-1.1,8c18.5,28.5,27.8,60,27.5,93.9c-0.4,39.2-13.1,74.7-36.5,106.2c-2.3,3.2-6.9,6.9-6.3,9.5
	c0.7,3.2,5.9,5.3,8.7,8.3c3.3,3.5,5.2,2.3,7.8-0.9C623.9,471.4,638.7,429.6,639,382.7L639,382.7z M575.1,374.6
	c0,33.1-7.2,55.2-19.7,75.9c-2.2,3.7-7.6,7.2-6.2,11c1.3,3.6,6.8,5.5,10.2,8.4c3.2,2.9,4.7,1.6,6.8-1.4c15.5-22,24.9-46.1,27.1-73
	c2.8-34.1-4.8-65.4-24.5-93.6c-1.7-2.4-2.9-3.2-5.3-0.8c-2.2,2.3-4.7,4.4-7.4,5.9c-3.8,2.1-3.4,4.2-1.3,7.4
	C568.3,335.5,575.2,358.4,575.1,374.6z M549.8,389.5c0-10-0.5-20.1-2.7-29.9c-0.8-3.5-4.3-20.9-8.7-22.4c-2.8-1-13.2,7.6-14.1,10.5
	c-1.9,6.3,5,17.9,5.9,24.5c1.5,10.7,0.8,21.5-1.8,31.9c-2.7,10.8-11.5,16.9-1.2,24.9c10.4,8.1,13-2.7,16.8-12.4
	C547.3,408.1,549.8,398.8,549.8,389.5L549.8,389.5z M91.9,309.6l0,0.3l-0.4-0.2L91.9,309.6L91.9,309.6z"/>
<path class="st1" d="M412.9,409.3c-5.5-8.8-11.9-16.8-19.8-23.7c7.6,0.5,16,2.5,23,5.5c6.7,2.9,7.4,5.6,11,12.2
	c6.9,12.7,10.9,28.6,19.2,40.3c4,5.6,9.4,10.6,14.4,15.3c3.5,3.3,15.4,9.1,16.9,12.9c2.3,5.8-20.2,27.8-24.6,33.2
	c-4.2-16.6-7.2-32.6-12-48.9c-10.5,12.6-17.3,26.7-26.7,39.8c-5.7-20.5-11.7-40.2-20.1-60.3c-7.1,12.3-10.9,24.9-17.6,36.4
	c-6.9-22.5-12.6-45.3-20.7-68.5c-7.8,12.5-12.5,25.4-19.5,37.8c-6.9-13-9.9-28.8-14.5-42.7c-1.4-4.2-5.1-9.9-1.8-13.7
	c3.1-3.7,15.7-4.7,20.3-5.2C370.2,375.9,391.6,390.3,412.9,409.3L412.9,409.3z"/>
<path class="st2" d="M250.3,212.6c19.4-5.4,39.2-7.2,59-2.8c8.8,2,17.3,4,26.4,3.9c7.7,0,18.2-5.4,25.2-4.2
	c-16.2,12.2-39.5,29.5-60.1,32.4C278.9,245,263.1,227.6,250.3,212.6L250.3,212.6z"/>
<path class="st1" d="M196.8,375.3c20.8-6.1,41.6-12.2,62.4-18.5c7-2.1,20.6-3.5,26.2-8.2c5.4-4.5,6.4-15.5,9-21.7
	c3.5,22.3,2.7,44.8,3.4,67.9c4.4-2.1,15.4-10.2,16.5-4.8c0.5,2.6-9.6,13.7-11.3,16.1c-3.9,5.4-8,10.7-12.2,15.9
	c-1.5-13.8-1.7-27.7-2.1-41.6c-0.4-11.1-0.4-11.3-11.9-10.1c-26.3,2.8-53.6,6-80.1,6C196.8,375.9,196.8,375.6,196.8,375.3
	L196.8,375.3z"/>
<path class="st1" d="M380.5,527.9c-50.8-4.4-97-19.2-140.9-42C288.1,493.5,333.7,510.3,380.5,527.9z"/>
<path class="st1" d="M411.8,319.5c-3.7-12.8-10.5-29.2-10.3-42.6c0.1-7,4.7-14.8,7.4-21c3.1-6.9,1.7-7,7.2-4.3
	c10.7,5.3,12.5,17.8,9.3,27.8C421.1,292.7,416.9,306.4,411.8,319.5L411.8,319.5z"/>
<path class="st1" d="M449.8,234.8c8.5,10.9,14.7,15.1,10.5,29.2c-3.9,13-8.3,25.9-12.7,38.7c-3.3-11.7-7.6-24.9-8.2-37.1
	C438.8,254.9,445.6,244.4,449.8,234.8L449.8,234.8z"/>
<path class="st1" d="M343.6,353.1c-3.9-11.4-10.4-26.2-9.5-38.5c0.4-6.1,3.4-13.6,5.3-19.3c2.5-7.5,1-7.6,6.9-4.8
	C368.3,300.9,348.6,337.4,343.6,353.1L343.6,353.1z"/>
<path class="st1" d="M479.9,291.9c-5-18.8-13.3-50.2,5.8-64.7c6.3,11.1,13.1,17.8,8.5,30.4C490,269.2,484.9,280.6,479.9,291.9
	L479.9,291.9z"/>
<path class="st1" d="M378.1,266c3,3.9,10.3,10.3,11.6,14.9c1.4,4.9-1.3,10.4-2.7,15.1c-3.6,12.2-7.6,24.3-11.4,36.4
	c-3.8-10.8-9.2-23-8.4-34.6C367.9,287.2,374.3,275.9,378.1,266L378.1,266z"/>
<path class="st1" d="M312.3,304.8c6.5,7.5,12.3,14.5,10.6,24.3c-2,11.5-5.9,22.9-8.7,34.1c-3.5-8.5-9.7-21.2-9.9-30.6
	C304,323.6,309.5,313.3,312.3,304.8L312.3,304.8z"/>
<path class="st1" d="M61.6,504.2c9.1-0.6,17.6-1.2,26-1.8c2.7-0.2,3.7,0.9,3.2,3.5c-2.4,11.8-4.9,23.6-8.7,36.5
	C73.9,529.8,67.8,517.4,61.6,504.2z"/>
<path class="st1" d="M518.3,233.5c2.4,7.5,7.7,17.2,6.6,25.1c-1,7.5-8.7,17.8-12.4,24.3c-1.7-8.5-6.4-20.6-5.7-29.1
	C507.5,246,513.6,240.1,518.3,233.5L518.3,233.5z"/>
<path class="st1" d="M142.1,448.5c0.3,18.9-12.2,29.6-25.2,41.2C120.2,472,128.1,458.4,142.1,448.5z"/>
<path class="st1" d="M104.8,553.2c6.3-13.4,13.1-26.5,25.1-35.9C131.5,529.5,119.3,546.8,104.8,553.2L104.8,553.2z"/>
<path class="st1" d="M485.7,505.3c-3.4-6.4-0.9-20.4-0.9-27.3c2.9,2.2,13.8,7.7,14.4,11.7C499.7,492.7,487.8,502.9,485.7,505.3z"/>
<path class="st1" d="M120.3,574c-0.9,5.8-1.7,10.7-3.7,15.2C108.4,582.8,109.9,583,120.3,574z"/>
<path class="st1" d="M104.7,553.1c-0.1,0.3-0.1,0.5-0.2,0.8C104.6,553.7,104.7,553.4,104.7,553.1L104.7,553.1z"/>
<path class="st1" d="M379.7,150.3l0.4,0.2C380,150.4,379.9,150.3,379.7,150.3L379.7,150.3z"/>
<path class="st2" d="M684.8,378c-0.3,64.4-21.1,119.3-59.8,167.9c-1.9,2.4-3.1,3-5.4,0.7c-3.5-3.3-9.7-5.2-10.4-9.4
	c-0.7-4,4.8-7.4,7.5-11.2c25.8-35.9,43.4-75.2,47.8-119.5c6-62.1-9.2-118.2-49.8-166.5c-2-2.3-2.2-3.7,0.3-5.5
	c1.3-1,2.4-2.3,3.6-3.4c7-6.9,7-6.9,13.5,0.7c27,32,42.6,69.1,49.5,110.1C683.8,354.4,685.2,367.1,684.8,378L684.8,378z"/>
<path class="st2" d="M639,382.7c-0.3,47-15.1,88.7-45,125c-2.6,3.2-4.5,4.4-7.8,0.9c-2.8-3-8-5.1-8.7-8.3c-0.6-2.6,4-6.3,6.3-9.5
	c23.4-31.5,36-66.9,36.5-106.2c0.4-33.9-9-65.4-27.5-93.9c-2.3-3.5-2.6-5.7,1.1-8c1.7-1.1,3-2.6,4.5-3.9c5.4-4.8,5.5-4.9,9.8,1.3
	c16.5,23.9,25.5,50.6,29.4,79.1C638.8,367,638.8,374.8,639,382.7L639,382.7z"/>
<path class="st2" d="M575.1,374.6c0-16.2-6.8-39.1-20.3-60.1c-2.1-3.2-2.5-5.3,1.3-7.4c2.7-1.5,5.2-3.7,7.4-5.9
	c2.4-2.5,3.6-1.6,5.3,0.8c19.7,28.2,27.3,59.5,24.5,93.6c-2.2,26.9-11.6,51-27.1,73c-2.1,3-3.6,4.2-6.8,1.4c-3.3-3-8.8-4.9-10.2-8.4
	c-1.4-3.8,3.9-7.3,6.2-11C567.9,429.9,575.1,407.7,575.1,374.6L575.1,374.6z"/>
<path class="st2" d="M549.8,389.5c0,9.3-2.5,18.6-5.8,27.2c-3.8,9.7-6.4,20.5-16.8,12.4c-10.2-8-1.5-14,1.2-24.9
	c2.6-10.5,3.3-21.2,1.8-31.9c-0.9-6.5-7.8-18.2-5.9-24.5c0.9-3,11.3-11.5,14.1-10.5c4.4,1.5,7.9,18.8,8.7,22.4
	C549.3,369.4,549.8,379.5,549.8,389.5L549.8,389.5z"/>
<polygon class="st0" points="91.9,309.6 91.5,309.7 91.9,309.9 "/>
<polygon class="st0" points="359.8,99.3 359.6,99.2 359.8,99.3 "/>
</svg>
