<?xml version="1.0" encoding="utf-8"?>
<!-- Generator: Adobe Illustrator 28.2.0, SVG Export Plug-In . SVG Version: 6.00 Build 0)  -->
<svg version="1.1" xmlns="http://www.w3.org/2000/svg" xmlns:xlink="http://www.w3.org/1999/xlink" x="0px" y="0px"
	 viewBox="0 0 747.4 747.4" style="enable-background:new 0 0 747.4 747.4;" xml:space="preserve">
<style type="text/css">
	.st0{fill:#030101;}
	.st1{fill:#202CC5;}
	.st2{fill:#FFFFFF;}
	.st3{fill:#FEFEFE;}
</style>
<g id="Layer_1">
	<g id="Layer_3">
		<circle class="st0" cx="373.7" cy="373.7" r="373.7"/>
	</g>
	<g id="Layer_4">
		<circle class="st1" cx="373.7" cy="373.7" r="340.7"/>
		<ellipse class="st2" cx="348.5" cy="427" rx="33.2" ry="29.7"/>
		<ellipse class="st2" cx="349.4" cy="424.4" rx="31.5" ry="30.6"/>
	</g>
	<g id="Layer_2_00000039816193285811328490000006446300485896608418_">
		<path d="M319.1,376.1c-2.4,3.2-7.7,0.6-11,0.1c-6.5-4.1,10.1-9.6,14-6.2c10.5,4.6,13.7,23.3,20.5,22.2c11.9,0,13.2,0.4,12.5-12.1
			c0.8-6.6,6-19.8,13.9-12.9c0.4,1.9-3.2,5.3-4.7,3.2c-7-5.6-7.2,13.6-7.8,17.5c-0.9,9.9,19.4,3.5,26.9,32.8
			c1.8,3.8,4.9,0.4,6.6-1.5c8.7-8.8,17.7-17.3,26.4-26c47.3-48.2,95.4-98.3,156.5-129.1c31.9-15.3,69.9-25.3,104.7-16
			c15.4,8.1-26.4,37.7-34.9,38.5c-9.7,0-16.3,10.4-13.2,19.4c2.3,5.7,1.2,11.3-1.6,16.6c-20.2,34.6-38.1,77.5-76.3,95.4
			c-12.1,1.7-24.8,0.6-36.1,6.6c-33,16.1,8.1,10.2,19.3,17.8c29.2,17.3,16.9,48.3-8.6,62.9c-16.2,8.6-46.5,6.1-64.5,2.8
			c-15.6-3.1-29.3-12.1-37.7-25.4c-4.1-2.1-9.7-0.3-14.2-1.6c-9.9-3.2-18.5-11-18.3,5.3c0.5,6.4,13.9,8.9,7.5,16.5
			c-4.9,7.1,2.4,16.5,0.5,24.6c0.7,3.8-1.4,7.3-1.2,10.9c0.4,2.1-0.7,2.9-2.7,2.2c-3.6-1-1.6-3.1,0.3-4.7c2.9-5.9,1.6-14.2,0.4-20.6
			c-5.2-4.4-4.4,10.5-5.8,13.2c-3.8,12.3-7.9,24.7-14.4,36c-7.3,16.2-15.2-4.7-19.5-11.7c-5-10.9-10.4-21.7-14.4-33
			c-2.2-2.8-1.4-6.9-4.8-8.7c-7.6,0.9-5.1,18.6-1.7,23.3c0.9,3.5,10.1,9.3,1.9,9.6c-2.8-0.8-0.5-5.4-2.8-7.2
			c-12.1-16.2,5.1-25.9-7-31.2c-4.3-3.8,0.4-7.8,3.4-10.4c2.5-4.1-2.6-13.9-8.1-10.7c-5.5,3.1-6,9.9-7.5,15.3
			c-2.9,7-7.3,15.8-15.5,17.1c-24.7,6.4-55.2,10.9-76.9-5.8c-12.6-10.5-22.1-29.7-11-44.4c4.1-7.7,12.4-11.1,17.9-17.1
			c-0.6-9.1-12.7-11.8-20.3-12.9c-31.3-3.1-52.6-18.1-70.5-43.4c-12.5-14.7-24.7-29.7-36.4-45.1c-9-8.6-4-11.3-6.8-21
			c-4.2-20.3-28.8-20.7-39.8-35.8c-4.2-4.4-6.4-15.2-0.2-18.4c17-4.2,34.7-4.2,51.8-0.4c29.2,8,57.2,20.7,82.1,38.2
			c35.5,24,68.6,51.1,101.5,78.5c7.6,6.3,15.1,12.8,22.5,19.3c3.6,4.1,6.7,0.7,8.8-2.8c2.5-5.8,16.9-10.8,13-15.9
			c-3.4-6.2-6.8-12.9-12.7-17.1C315.3,365.6,301,376.5,319.1,376.1L319.1,376.1L319.1,376.1z M372.9,434.9c7,0.8,9.6-5.4,7.1-11.3
			c-1.3-3.3,0.1-7.4-3.4-9.8c-4.3-3.5-1.6,7.1-5.7,6.4c-8.1-0.1-19.9-17.8-6.8-18.3c3.8-5.2-11-5.6-14.2-5.5
			c-9.1,2.9-0.8,15.9,1.1,21.7C354.6,427.3,362.3,435.4,372.9,434.9L372.9,434.9z M316.4,424.2C316.4,424.2,316.5,424.2,316.4,424.2
			c-0.9,6.5,6.8,8.2,11.8,6.4c4.8-2.4,0.5-9.3,3.6-13.2c1.8-5.5,5.2-10.1,8.1-15.1c2.5-5.9-4.4-6.3-7.6-3.1
			c-3.7,3.6-4.2,9.6-7.6,13.6C322,417.8,315.5,416.5,316.4,424.2L316.4,424.2L316.4,424.2z M328.7,502.1c-0.2,2.7,2.6,3.3,4.7,3.9
			C340.6,506.2,330.8,492,328.7,502.1L328.7,502.1z M395.6,501.9c5-0.5,2.6-8.4-1.6-7C392,496.1,393.1,501.8,395.6,501.9z"/>
	</g>
</g>
<g id="Layer_2">
	<path class="st3" d="M345.4,322c9.3,0,18.6,2.5,27.2,5.8c9.7,3.8,20.5,6.4,12.4,16.8c-8,10.2-14,1.5-24.9-1.2
		c-10.5-2.6-21.2-3.3-31.9-1.8c-6.5,0.9-18.2,7.8-24.5,5.9c-3-0.9-11.5-11.3-10.5-14.1c1.5-4.4,18.8-7.9,22.4-8.7
		C325.3,322.5,335.4,322,345.4,322L345.4,322z"/>
	<path class="st3" d="M329.4,293.3c-16.2,0-39.1,6.8-60.1,20.3c-3.2,2.1-5.3,2.5-7.4-1.3c-1.5-2.7-3.7-5.2-5.9-7.4
		c-2.5-2.4-1.6-3.6,0.8-5.3c28.2-19.7,59.5-27.3,93.6-24.5c26.9,2.2,51,11.6,73,27.1c3,2.1,4.2,3.6,1.4,6.8c-3,3.3-4.9,8.8-8.4,10.2
		c-3.8,1.4-7.3-3.9-11-6.2C384.7,300.5,362.5,293.3,329.4,293.3L329.4,293.3z"/>
	<path class="st3" d="M332.5,232.3c47,0.3,88.7,15.1,125,45c3.2,2.6,4.4,4.5,0.9,7.8c-3,2.8-5.1,8-8.3,8.7c-2.6,0.6-6.3-4-9.5-6.3
		c-31.5-23.4-66.9-36-106.2-36.5c-33.9-0.4-65.4,9-93.9,27.5c-3.5,2.3-5.7,2.6-8-1.1c-1.1-1.7-2.6-3-3.9-4.5
		c-4.8-5.4-4.9-5.5,1.3-9.8c23.9-16.5,50.6-25.5,79.1-29.4C316.8,232.5,324.6,232.5,332.5,232.3L332.5,232.3z"/>
	<path class="st3" d="M336.7,179.1c64.4,0.3,119.3,21.1,167.9,59.8c2.4,1.9,3,3.1,0.7,5.4c-3.3,3.5-5.2,9.7-9.4,10.4
		c-4,0.7-7.4-4.8-11.2-7.5c-35.9-25.8-75.2-43.4-119.5-47.8c-62.1-6-118.2,9.2-166.5,49.8c-2.3,2-3.7,2.2-5.5-0.3
		c-1-1.3-2.3-2.4-3.4-3.6c-6.9-7-6.9-7,0.7-13.5c32-27,69.1-42.6,110.1-49.5C313.1,180.1,325.8,178.7,336.7,179.1L336.7,179.1z"/>
</g>
</svg>
