<?xml version="1.0" encoding="utf-8"?>
<!-- Generator: Adobe Illustrator 28.2.0, SVG Export Plug-In . SVG Version: 6.00 Build 0)  -->
<svg version="1.1" id="Layer_1" xmlns="http://www.w3.org/2000/svg" xmlns:xlink="http://www.w3.org/1999/xlink" x="0px" y="0px"
	 viewBox="0 0 747.4 747.4" style="enable-background:new 0 0 747.4 747.4;" xml:space="preserve">
<style type="text/css">
	.st0{fill:#BCC422;}
	.st1{fill:#FEFEFE;}
</style>
<g id="Layer_1_00000178888111910840764020000007987174771077190056_">
	<g id="Layer_1-2">
		<g id="Layer_3">
			<circle cx="373.7" cy="373.7" r="373.7"/>
		</g>
		<g id="Layer_4">
			<circle class="st0" cx="373.7" cy="373.7" r="340.7"/>
		</g>
	</g>
</g>
<g id="Layer_2_00000090995710667286094280000013890941651685441415_">
	<path d="M277,562.1c1.7,0.3,3.3,0.5,5.4,0.9c-0.4-1-0.6-1.8-1-2.5c-0.6-1.1-1.4-2.1-1.8-3.2c-1-2.5-0.5-3.4,1.8-4.8
		c1.3-0.8,2.4-1.9,3.5-3c1.8-1.9,3.3-4,5.1-5.8c2-1.9,3-1.8,4.9,0.3c2.7,2.9,4.5,6.2,3.3,10.6c-0.6,2.2-0.8,4.5-1.3,6.7
		c-2.1,8.4-2.9,17-1.9,25.6c1,8.9,4.4,16.8,9.5,23.9c0.1,0.2,0.4,0.2,1,0.6c0.6-1.8,1.3-3.4,1.7-5.2c1.2-7,2.2-14,3.6-21
		c0.9-4.3,2.1-8.6,3.7-12.7c2.1-5.5,3.9-11.1,5.1-17c0.9-3.9,2.3-7.7,3.9-11.4c1.6-3.8,2-7.4,0.1-11.3c-1.5-2.8-2.4-6-3.8-9.4
		c-3.6,1-7,1.7-10.2,2.8c-8.6,3.2-17.2,6.4-25.7,10.1c-4,1.7-7.8,4.2-11.5,6.8c-5,3.5-9.7,7.3-14.5,11c-8.1,6.2-16.8,10.9-26.4,13.9
		c-1.4-1.7-1-3.1,0.6-4.5c1.6-1.3,3-2.8,4.9-4.5c-0.9-1-1.6-1.8-2.4-2.5c-4.4-3.9-8.5-8-11.6-13.3c-1.6-2.8-3.9-5.1-6-7.5
		c-2-2.2-4.4-3.1-7.4-1.8c-2.6,1.1-5.4,1.7-8.1,2.5c-1.4-3-1.4-3.2,0.7-4.8c1.2-1,2.5-1.9,3.8-2.9c1.5-1.2,2-2.7,1.5-4.7
		c-3.1-11.2-7.4-21.4-16.9-28.1c-3.6-2.6-7-5.7-10.5-8.4c-1.1-0.9-2.5-1.5-3.7-2.2c-1.4-0.9-2.8-0.9-4.4-0.1
		c-2.3,1.2-4.7,1.5-7.4,0.9c-0.3-2.4,1.5-3.3,2.5-4.7c1.7-2.4,3.6-4.7,5.2-7.2c0.6-1,1.2-2.4,1.1-3.5c-0.1-3.8-0.4-7.5-0.6-11.3
		c-0.4-7.6-4.2-13.6-8-19.6c-2.9-4.6-5.7-9.4-8.6-14c-1-1.6-2.1-3.1-3.1-4.6c-1.9-2.8-4.5-4.1-7.6-4c-1.7,0-3.3,0.2-5,0.2
		c-0.9,0-1.9,0-2.8-0.4c-1.3-0.6-1.4-2.1-0.2-3c0.6-0.4,1.3-0.6,1.9-1c2.2-1.2,4.3-2.5,6.7-4c-0.6-1.9-0.9-3.4-1.5-4.9
		c-1.4-3.6-3.2-7.1-4.3-10.9c-1.7-5.6-3.3-11.4-4.4-17.2c-1-5.3-3-9.9-6.4-13.8c-2.4-2.8-4.9-5.5-7.3-8.3c-1.3-1.5-2.6-3-3.6-4.7
		c-1.1-1.9-2.4-2.5-4.4-2.5c-3.1,0.1-6.1,0-9.7,0c-0.2-0.3-0.6-1.1-1.1-1.9c0.3-0.4,0.4-0.8,0.7-1c2.5-1.4,5.1-2.8,7.5-4.3
		c2.6-1.6,3.8-3.9,3.4-7.3c-1.3-11.5-2.5-23-5.4-34.1c-1-3.7-2.4-7.4-4.2-10.8c-6.9-13.1-15.1-25.2-24.9-36c-2-2.2-3.9-4.4-5.8-6.7
		c-5.4-6.6-12.3-10.1-20.3-11.6c-2.1-0.4-4.5-0.2-6.4-2.5c5.5-3.4,11-4.6,17.1-3.1c22.2,5.6,43.8,13.2,64.2,24.3
		c16.4,9,32.3,18.9,47,30.7c23.2,18.6,43,41,59.7,66.4c14,21.3,26.9,43.3,39.8,65.4c10.7,18.2,23.8,34.2,39.3,47.8
		c3,2.6,6.3,4.9,9.5,7.4c0.7,0.6,1.6,1,2.7,1.6c0.8-3.6,0.1-6.8-0.3-10c-1.8-12.4-3.9-24.8-5.6-37.2c-1.5-11.3-2.4-22.7-4.8-33.8
		c-0.6-3-1.3-5.9-3.1-8.2c-1.8-0.1-2.1,1.4-2.6,2.4c-1.9,3.7-3.8,7.3-5.5,11.1c-1.4,3.2-2.6,6.5-3.9,9.8c-1.1,2.9-2,6-3.4,8.8
		c-0.9,1.7-2.2,3.4-3.7,4.5c-3.4,2.4-5.8,2.1-8.4-1.4c-1.6-2.1-2.8-4.7-3.8-7.2c-1.2-3.2-2.5-6.3-4.9-8.7c-2-2-2.8-4.6-2.8-7.5
		c0-3.4-0.1-6.8-0.1-10.3c0-2.2-0.2-4.4,1.2-6.5c0.7-1,0.4-3,0.3-4.4c-1-7.9-2.1-15.8-3.1-23.7c-0.3-2.2-0.5-4.5-0.5-6.8
		c0-1.3,0.5-2.8,1.2-3.8c1.8-2.5,2.5-5.4,3.1-8.4c0.9-4.5,1.8-8.9,2.7-13.4c0.2-1.1,0.2-2.4,1.8-2.4c1.4,0,1.9,1.1,2,2.2
		c0.6,3.7,1.1,7.5,1.6,11.3c1.1,9,2.1,18.1,3.1,27.6c0.8-0.5,1.4-0.6,1.7-1c5.8-6.4,11.4-12.8,15.4-20.8c2.7-5.4,5.8-10.5,8.8-15.7
		c0.3-0.5,0.5-1.3,1-1.5c0.8-0.5,2-1.3,2.7-1.1c0.7,0.3,1.3,1.8,1.2,2.7c-0.2,1.6-0.9,3.1-1.4,4.7c-1.7,4.7-3.4,9.5-5,14.2
		c-0.2,0.7-0.3,1.4-0.6,2.9c1.2-1,1.9-1.4,2.4-1.9c2.4-2.2,4-1.6,4.7,1.5c0.1,0.7,0.4,1.3,1.2,2c0.3-1,0.5-2,1-2.9
		c0.6-1,1.2-2.2,2.2-2.8c2-1.2,3.5-0.4,3.8,2c0.3,2.8,0.4,5.6,0.3,8.4c0,1.9,0.4,3.4,1.9,4.6c1.5,1.2,2.7,2.9,4.2,4.1
		c2.3,1.9,3.3,4.2,3.8,7.3c0.8,5.2,2.4,10.3,3.5,15.5c3,13.2,6.1,26.3,9,39.5c1,4.4,1.3,9,1.9,13.5c0.4,3.1,0.9,6.2,2.9,9
		c0.1-1.7,0.4-3.4,0.4-5.1c0.5-20.5,1-41.1,1.4-61.7c0.2-9.5,0-19,0.4-28.5c0.3-7.9-2.6-13.4-8.9-17.1c-2-1.2-2.4-2.3-1.3-4.3
		c0.9-1.5,0.9-2.7-0.1-4.1c-1-1.5-1.2-3,0.3-4.6c1.2,0.4,2.4,0.7,4.3,1.3c-2.8-8.6-7.9-15.8-8.6-24.6c2.3-0.8,3.6,0.3,4.7,1.9
		c1.7,2.5,3.3,4.9,5,7.4c0.5,0.8,1.1,1.6,2,2.3c0.5-2.2,0.4-4.3-0.1-6.5c-1.2-6.2-2.5-12.4-3.6-18.6c-0.4-1.9-0.4-3.8,0.8-5.5
		c1.2-1.7,2.7-1.8,3.8-0.1c0.8,1.4,1.5,2.9,1.9,4.5c2.1,7.2,4.2,14.5,6.2,21.8c0.5,1.9,1.4,3.1,3.4,3.2c1.8,0.1,3.5,0.2,5.2,0.3
		c2.9-5.5,5.5-10.9,8.5-16.1c2.1-3.7,4.4-7.2,6.8-10.7c0.8-1.1,2.1-1.9,3.3-2.9c1.2,2.7,0.2,4.7-0.5,6.6c-2.8,7.6-4.8,15.4-6.4,23.3
		c-0.2,1-0.3,2-0.4,3.2c1.8-0.2,2.5-1.6,3.3-2.7c1.5-2.1,2.7-4.5,4.2-6.6c0.6-0.8,1.7-1.5,2.6-1.5c1.3-0.1,2,1.5,1.5,3.5
		c-1.2,4.6-2.4,9.3-4.8,13.5c-0.8,1.4-1.4,2.8-2.5,5.1c1.9-0.7,2.9-1.1,4-1.5c2.6-0.9,3.2-0.1,3.7,2.7c0.8,4.9-0.5,8.2-4.9,10.4
		c-2.2,1.1-4,3.1-6,4.7c-2.9,2.3-4.4,5.2-4.3,9.1c0.1,2.8,0.1,5.6,0.3,8.4c0.7,11.3,1.3,22.5,2.1,33.8c1,14.5,2.4,29.1,2.3,43.7
		c0,0.7,0.2,1.4,1,2.3c0.6-1.3,1.3-2.5,1.7-3.9c2.1-6.9,4.4-13.7,6.1-20.7c3.2-13.4,8.2-25.9,13.7-38.3c1.9-4.2,4.1-8.3,6-12.5
		c1.4-3.2,2.8-6.5,3.9-9.8c0.6-1.9,1.6-2.9,3.4-3.4c1.3-0.4,2.5-1.2,3.9-1.8c-0.3-5-3-9.1-2.7-13.9c1.9-1.4,3.3-0.5,4.5,0.8
		c1.7,1.8,3.3,3.7,5,5.4c0.8,0.8,1.8,1.5,3.2,2.7c0.2-2.2,0.6-3.7,0.5-5.1c-0.4-4.7-1-9.3-1.4-14c-0.2-2-0.4-4-0.4-6.1
		c0-1.8,0.5-3.5,2.6-4.6c0.6,1.2,1.3,2.4,1.7,3.6c1.5,4.8,2.8,9.7,4.2,14.5c2.5,8.2,6.3,15.6,12.1,21.6c1.2,1.2,2.5,2.3,4,3.8
		c0.4-1.5,0.8-2.6,1-3.6c2.6-10.3,5.2-20.6,7.8-30.8c0.3-1.1,0.6-2.2,1.1-3.2c0.7-1.3,1.9-1.2,2.4,0.2c0.3,0.8,0.5,1.7,0.5,2.6
		c1.2,15.3,1.1,30.7,0.5,46c-0.1,1.5,0,3.2-0.6,4.5c-1.5,3.3-1.2,6.5-0.7,10c0.6,4,1.1,8.1,1.1,12.1c0,3-0.4,6.1-1.3,8.9
		c-0.5,1.6-2.1,3-3.4,4.1c-1,0.9-2.2,1.4-3.4,2c-2.3,1.2-3.6,2.8-3.7,5.9c0,3.8-2.6,6.5-5.8,7.1c-4.2,0.7-7.2-0.9-8.6-4.8
		c-0.8-2.2-1.2-4.6-1.9-6.9c-1.9-6.8-3.8-13.6-5.9-20.4c-1-3.2-2.1-6.5-4.9-8.8c-1.8,0.7-2.7,2.1-3.2,3.9
		c-1.6,5.5-3.3,10.9-4.5,16.4c-1.9,8.6-3.4,17.4-5.1,26c-1.6,8.7-4,17.2-6.8,25.6c-2.4,7.3-3.5,15-4,22.7c0,0.8,0.2,1.7,0.4,2.9
		c1-0.3,1.8-0.4,2.4-0.7c7.4-4.1,14.4-8.7,20.6-14.8c15.1-14.9,29-31,41.5-48.5c7.7-10.8,15.8-21.3,23.5-32
		c4.4-6.1,8.5-12.5,12.7-18.8c9.8-14.4,19.8-28.5,31.2-41.5c8.3-9.5,17.2-18.2,27.1-25.8c7.1-5.5,14-11.4,21.1-16.8
		c22-16.5,44.8-31.4,69.7-42.6c6.1-2.8,11.9-6.3,17.9-9.3c3.1-1.6,6.3-2.9,9.6-3.9c1.2-0.4,2.9-0.1,4,0.5c2.1,1.2,1.8,3.6-0.3,4.6
		c-6.3,2.8-11.3,7.4-15.8,12.7c-9.2,10.8-16.2,23.1-22,36.3c-3.9,8.7-7.8,17.3-10.3,26.7c-1.8,6.8-2.6,13.6-3.2,20.5
		c-0.3,3.7-0.7,7.3-0.7,11c-0.1,3.6,0.6,4.4,4,5.1c1.6,0.3,3.3,0.3,5,0.5c1.5,0.2,3,0.5,4.6,0.7c-0.5,2.7-1.7,4.1-4.1,4.2
		c-2.2,0.2-4.5,0.6-6.7,1.1c-2.9,0.7-5.7,1.9-7.8,4.2c-9,10.2-18.2,20.4-24.9,32.6c-4.1,7.6-6.2,16-7,24.7c-0.4,4.1,0.8,5.7,4.6,6.8
		c1,0.3,2.1,0.4,3.2,0.6c1.2,0.2,2.4,0.4,3.5,0.8c0.6,0.3,1.1,1.1,1.3,1.8c0.1,0.3-0.9,1.1-1.4,1.3c-2.6,0.6-5.3,1-8,1.6
		c-1.1,0.3-2.3,0.7-3.1,1.5c-6.7,7.2-13.6,14.2-19.8,21.9c-5.7,7.1-8.2,15.9-8.7,25.3c-0.2,2.9-0.1,5.8-0.2,8.8
		c-0.1,2.1,0.6,3.6,2.1,5c1.6,1.4,3.1,3,3.6,6c-2.5,0-4.7,0.1-6.8,0c-3-0.1-5.7,0.7-8.1,2.4c-4,2.9-8.2,5.6-11.9,8.9
		c-6.8,6-10.2,14.5-13.3,23.1c-1.1,3.2-0.4,4.3,2.8,5.8c1.8,0.8,3.7,1.4,2.9,4.6c-1.6,0-3.3,0.2-4.8,0c-4.1-0.8-7.5,0.9-10.5,3.6
		c-3.3,3.1-6.5,6.3-9.7,9.5c-1.9,1.9-3.9,3.7-5.8,5.6c-1.1,1.1-2.1,2.4-2.9,3.8c-1,1.5-1.3,3.1,0.1,4.8c1.4,1.9,1.2,2-0.5,5
		c-2-1.2-4.1-2.2-6-3.6c-6.9-4.9-13.8-9.8-20.6-15c-10.5-8-22.1-13.2-34.6-16.4c-9.1-2.3-18.3-4.4-27.4-6.5c-3-0.7-4.3,0-4.9,3.2
		c-0.9,4.5-2.6,8.7-4.7,12.7c-1.5,2.9-1.5,5.8-0.2,8.8c0.7,1.6,1.6,3.1,2.3,4.7c1.4,3.5,2.7,7,4,10.5c0.9,2.5,1.5,5.1,2.5,7.5
		c4.4,9.6,6.6,19.8,8.2,30.2c0.6,4.1,1.9,8,2.8,12.1c5-0.2,9.6-0.5,14.6-0.7c-0.3-2-0.5-3.5-0.8-4.9c-3.2-14.2-6.4-28.4-9.7-42.5
		c-0.6-2.4-0.5-4.7,0.1-7.1c0.6-2.6,1.1-5.2,1.7-8c2.3,0.3,3.3-0.8,3.8-3c0.7-3.1,2.7-5.2,4.9-7.3c1.9-1.8,4-2,6.3-1.4
		c2.2,0.6,3.1,1.8,3.4,4.2c0.5,4.3,1,8.5,1.8,12.8c0.9,4.8,0.6,9.3-2.4,13.3c-5,6.9-5.8,14.5-2.8,22.6c2.5,6.6,4.9,13.2,7.2,19.8
		c1.6,4.4,3.2,8.7,4.5,13.2c1.1,3.7,0,7.3-3,9.4c-3.7,2.6-7.8,3.4-12.2,2.2c-0.8-0.2-1.6-0.6-2.4-0.8c-7-1.8-12.6,3-12.4,10.6
		c0.1,4.2,0.7,8.3,0.8,12.5c0,2.5-0.3,5.1-0.9,7.5c-0.5,2-0.2,3.4,1.5,4c2.9,1.1,5.8,2.2,8.8,2.8c7.1,1.2,12,5.4,13.7,12.5
		c0.4,1.5,0.2,3.2-0.1,4.8c-0.3,1.6-1.6,2.4-3.2,2.5c-9.9,0.3-19.9,0.5-29.8,0.8c-2.1,0.1-3.9-0.4-5.6-1.8c-1.8-1.6-4-2.8-5.9-4.3
		c-2.7-2-4-4.9-4.6-8.3c-0.6-3.2-1.5-6.4-2.1-9.6c-0.5-2.8-2.1-3.9-4.7-4.3c-3.4-0.6-6.8-1.3-10-2.4c-5.8-2-10.1-6.1-13.2-11.6
		c-1.9-3.4-3.5-6.9-5.1-10.4c-0.7-1.5-1.8-2.6-3.3-3.5c-0.3,0.8-0.8,1.5-0.9,2.3c-0.3,2.8-0.6,5.5-0.7,8.3c-0.1,2.9-0.9,5.5-2.8,7.6
		c-0.3,0.4-0.7,0.7-1,1.1c-7.4,9.3-15.7,5.7-21.6-0.3c-2-2.1-3.6-4.7-5.5-7.1c-3.6,3.3-5.8,7.4-7.4,12c-1,2.7-2.2,5.4-2.9,8.2
		c-0.8,3.3-1.3,6.7-1.4,10.1c-0.2,3.9-1.9,6.6-4.9,8.3c-5.2,2.9-10.5,6-16.4,7.3c-0.6,0.1-1.1,0.4-1.7,0.4c-4.2,0-8.5-0.1-12.8-0.2
		c-0.5,0-1.1-0.1-1.3-0.4c-1.5-2.3-3.6-1.6-5.5-1.2c-2.5,0.4-4.7-0.1-7-0.9c-2.7-1-3.6-3.2-2.3-6c2.4-5.1,5.8-8.9,11.3-10.1
		c3.2-0.7,6.5-1.5,9.7-2.4c2.9-0.8,3.4-1.5,3.5-4.8c0.4-11.3,0.7-22.6,1.1-33.9c0.1-2.4,0-4.5-2-6.1c-0.9-0.7-1.4-2-1.9-3.2
		c-1.9-3.8-3.9-7.5-5.6-11.4c-0.9-2-1.5-4.3-2-6.5c-1.2-5.3-2.3-10.6-3.2-16c-0.6-3.3-2-6.2-3.6-9c-1.3-2.4-2.5-4.9-3.6-7.4
		C275.9,567.7,275.9,565.2,277,562.1L277,562.1z"/>
</g>
<g id="Layer_2_00000091012200172507596910000009264403416878698912_">
	<path class="st1" d="M373.4,233.8c9.3,0,18.6,2.5,27.2,5.8c9.7,3.8,20.5,6.4,12.4,16.8c-8,10.2-14,1.5-24.9-1.2
		c-10.5-2.6-21.2-3.3-31.9-1.8c-6.5,0.9-18.2,7.8-24.5,5.9c-3-0.9-11.5-11.3-10.5-14.1c1.5-4.4,18.8-7.9,22.4-8.7
		C353.3,234.2,363.4,233.8,373.4,233.8L373.4,233.8z"/>
	<path class="st1" d="M357.4,205c-16.2,0-39.1,6.8-60.1,20.3c-3.2,2.1-5.3,2.5-7.4-1.3c-1.5-2.7-3.7-5.2-5.9-7.4
		c-2.5-2.4-1.6-3.6,0.8-5.3c28.2-19.7,59.5-27.3,93.6-24.5c26.9,2.2,51,11.6,73,27.1c3,2.1,4.2,3.6,1.4,6.8c-3,3.3-4.9,8.8-8.4,10.2
		c-3.8,1.4-7.3-3.9-11-6.2C412.7,212.2,390.5,205,357.4,205L357.4,205z"/>
	<path class="st1" d="M360.5,144.1c47,0.3,88.7,15.1,125,45c3.2,2.6,4.4,4.5,0.9,7.8c-3,2.8-5.1,8-8.3,8.7c-2.6,0.6-6.3-4-9.5-6.3
		c-31.5-23.4-66.9-36-106.2-36.5c-33.9-0.4-65.4,9-93.9,27.5c-3.5,2.3-5.7,2.6-8-1.1c-1.1-1.7-2.6-3-3.9-4.5
		c-4.8-5.4-4.9-5.5,1.3-9.8c23.9-16.5,50.6-25.5,79.1-29.4C344.8,144.2,352.6,144.2,360.5,144.1L360.5,144.1z"/>
	<path class="st1" d="M364.7,90.9c64.4,0.3,119.3,21.1,167.9,59.8c2.4,1.9,3,3.1,0.7,5.4c-3.3,3.5-5.2,9.7-9.4,10.4
		c-4,0.7-7.4-4.8-11.2-7.5c-35.9-25.8-75.2-43.4-119.5-47.8c-62.1-6-118.2,9.2-166.5,49.8c-2.3,2-3.7,2.2-5.5-0.3
		c-1-1.3-2.3-2.4-3.4-3.6c-6.9-7-6.9-7,0.7-13.5c32-27,69.1-42.6,110.1-49.5C341.1,91.9,353.8,90.5,364.7,90.9L364.7,90.9z"/>
</g>
</svg>
